<svg id="Layer_1" data-name="Layer 1" xmlns="http://www.w3.org/2000/svg" xmlns:xlink="http://www.w3.org/1999/xlink" viewBox="0 0 500.36 126.4"><defs><style>.cls-1{fill:url(#linear-gradient);}.cls-2{fill:#05849a;}.cls-3{fill:#fff;}</style><linearGradient id="linear-gradient" x1="-6.53" y1="74.09" x2="122.63" y2="52.6" gradientUnits="userSpaceOnUse"><stop offset="0" stop-color="#062f35"/><stop offset="0.03" stop-color="#06333a"/><stop offset="0.38" stop-color="#055f6e"/><stop offset="0.65" stop-color="#057a8e"/><stop offset="0.8" stop-color="#05849a"/></linearGradient></defs><path class="cls-1" d="M99.67,5.12c1.73,0,3.45.09,5.14.08,7.07,0,11.23,2.54,11.41,10a139.5,139.5,0,0,1-.11,15c-.57,6.84-7.24,10.57-12.75,6.62-4-2.87-5.52-.94-7.91,1.45Q56.9,76.89,18.25,115.44a26.85,26.85,0,0,1-4.82,4.37c-3.71,2.22-7.55,2.12-10.78-1S-.6,111.72,1.5,108c1-1.85,2.81-3.3,4.35-4.84q38.36-38.37,76.76-76.7c2.66-2.65,5-4.46,1.75-8.91-3.55-4.93,0-11.22,6.18-12.11A55.34,55.34,0,0,1,99.67,5.12Zm-39.24,112q25.82-25.81,51.64-51.62c4.67-4.69,5.2-10.13,1.55-13.76s-9-3.21-13.75,1.51Q85,67.85,70.26,82.61,58.69,94.12,47.2,105.67c-3,3-4.17,6.65-2.35,10.71,1.46,3.26,4.13,4.93,8.16,4.79C56.07,121.39,58.24,119.25,60.43,117.07ZM16.79,73.16Q42.35,47.53,67.91,21.88c5.21-5.24,5.79-10.2,1.83-14.16C66,3.93,60.56,4.55,55.47,9.61,46.52,18.5,37.69,27.49,28.78,36.42Q15.9,49.36,2.94,62.24A8.86,8.86,0,0,0,.74,72.41a7.93,7.93,0,0,0,6.88,5.11C12,77.66,14.45,75.51,16.79,73.16Z" transform="translate(0)"/><path class="cls-2" d="M221.58,84.51H201.92a66.73,66.73,0,0,1-3.79-16.9c-1-8.62-4.38-13.68-10.35-14.14-2.19-.12-4.14-.12-6.33-.12h-7.13V84.51h-18V5.17h30.12a98.17,98.17,0,0,1,12,.58c11.5,1.38,21,7.13,21,21,0,10.12-5.74,16.68-15.74,19.55,8,3,11.15,9.31,12.07,18.51S218.36,79.91,221.58,84.51ZM183.64,40.13c2.52,0,4.48,0,6.09-.12,5.86-.57,10.81-3.1,10.81-10.34s-4.25-9.54-10.12-10.24c-1.61-.11-3.56-.23-6.1-.23h-10V40.13Z" transform="translate(0)"/><path class="cls-2" d="M290.64,53.82c0,19.08-12.07,32.3-32.3,32.3S226,72.9,226,53.82s11.95-32.2,32.31-32.2S290.64,34.73,290.64,53.82Zm-18.62,0C272,41.05,266.84,34,258.34,34s-13.8,7-13.8,19.78,5.17,19.88,13.8,19.88S272,66.58,272,53.82Z" transform="translate(0)"/><path class="cls-2" d="M395.24,48.29V84.51H377.19V52.89a85.66,85.66,0,0,0-.46-9.31c-.68-6.09-3.91-9.54-9.66-9.54-6.9,0-10.35,6.09-10.35,18.62V84.51H338.79V52.89a88.26,88.26,0,0,0-.46-9.31c-.81-6.09-3.91-9.54-9.78-9.54-6.9,0-10.23,6.09-10.23,18.62V84.51H300.27V23.23h18.05v9.54l4.6-7.59c3.68-2.41,7.59-3.56,13.22-3.56,10.23,0,16.56,5.06,19.09,11.84l6.21-8.28c3.56-2.41,7.58-3.56,13.11-3.56,12,0,18.74,6.9,20.12,15.29A77.46,77.46,0,0,1,395.24,48.29Z" transform="translate(0)"/><path class="cls-2" d="M465.33,58.53h-43c1,11.73,6.09,15.17,12.88,15.17,6.31,0,10.57-3.44,11.6-9.19h17.83c-3.34,14.14-14.84,21.61-29.78,21.61-17.14,0-30.59-10.46-30.59-32.08,0-18.39,12.31-32.42,31.74-32.42s29.66,14.83,29.66,31.16A56.31,56.31,0,0,1,465.33,58.53ZM422.79,47.15h24.14c-1-8.63-5.06-13.11-11.72-13.11C428.77,34,424.28,38.06,422.79,47.15Z" transform="translate(0)"/><path class="cls-2" d="M493.23,63.59c0,2.64,0,4,.12,5.63.35,2.76,1.61,3.68,7,3.45V85a105.26,105.26,0,0,1-10.8.57c-8.63,0-13.69-3.33-14.15-11.39-.22-3-.22-6-.22-10.23V0h18Z" transform="translate(0)"/><path class="cls-3" d="M221.62,126l-6.35-17.94h3.9l4.76,15.18,4.83-15.18h3.83L226.11,126Z" transform="translate(0)"/><path class="cls-3" d="M260.53,126H247.58V108.1h12.69v2.8h-9.1v4.74h8.45v2.84h-8.45v4.73h9.36Z" transform="translate(0)"/><path class="cls-3" d="M287.4,126,280,112.41c.11,2,.13,4,.13,5.52V126h-3.59V108.1h4.76L288.85,122c-.1-1.93-.12-4.11-.12-5.65V108.1h3.55l0,17.94Z" transform="translate(0)"/><path class="cls-3" d="M317.22,110.9V126h-3.6V110.9h-6.08v-2.8H323.3v2.8Z" transform="translate(0)"/><path class="cls-3" d="M353,118.73c0,.76,0,1.28,0,2.11-.23,3-2.31,5.56-7.33,5.56s-7.13-2.57-7.37-5.56c0-.83,0-1.35,0-2.11V108.1h3.57v11a10.22,10.22,0,0,0,0,1.3c.16,2,1.4,3.33,3.8,3.33s3.61-1.28,3.77-3.33a10.22,10.22,0,0,0,0-1.3v-11H353Z" transform="translate(0)"/><path class="cls-3" d="M383.9,126H380a16.18,16.18,0,0,1-.88-4c-.23-1.93-1-3.1-2.42-3.2-.49,0-.94,0-1.4,0h-2.08V126H369.6V108.1h6.56a19.09,19.09,0,0,1,2.59.13c2.6.31,4.71,1.66,4.71,4.76a4.35,4.35,0,0,1-3.51,4.37c1.76.67,2.44,2.15,2.65,4.16A9.32,9.32,0,0,0,383.9,126Zm-8.24-9.91c.62,0,1.06,0,1.46,0a2.46,2.46,0,0,0,2.57-2.58,2.32,2.32,0,0,0-2.37-2.54,10,10,0,0,0-1.5-.09h-2.63v5.23Z" transform="translate(0)"/><path class="cls-3" d="M412.5,126H399.55V108.1h12.69v2.8h-9.1v4.74h8.45v2.84h-8.45v4.73h9.36Z" transform="translate(0)"/><path class="cls-3" d="M441.1,113.38h-3.66c-.22-1.82-1.23-3-3.11-3-1.42,0-2.51.68-2.51,2.13s1,2.26,3.82,2.94c3.95.91,5.72,2.73,5.72,5.62,0,3.38-3.1,5.3-6.63,5.3-4.29,0-7.1-1.89-7.44-5.66H431a3.57,3.57,0,0,0,3.71,3c1.64,0,2.94-.89,2.94-2.27s-.93-2.39-3.58-3c-3.67-.89-6-2.16-6-5.46s3-5.26,6.42-5.26C438.76,107.73,440.71,110.18,441.1,113.38Z" transform="translate(0)"/></svg>